<svg xmlns="http://www.w3.org/2000/svg"><symbol id="bubbles" viewBox="0 0 256 256"><path d="M103.8 156.8l-35 18.4-2.9-4.2 18.2-21.5h13.7l6 7.3zm2.9 3.3l8.5 10.3H87l19.7-10.3zm46.1-10.6l-17.4 20.9h-14.9l-17.3-20.9h49.6zm-3.5 10.6l19.7 10.3h-28.2l8.5-10.3zm-62.5-29.6c-2.1-4.8-2.5-10.3-2.5-15.7a44.8 44.8 0 0 1 89.6 0 49.9 49.9 0 0 1-2.5 15.7zm-14.3 4.1h113.2v10.76H72.5zm99.4 14.9l18.2 21.8-2.9 3.9-35.2-18.4 6.2-7.3h13.7z"/><path d="M128 2L18.9 65v126L128 254l109.1-63V65zm66.2 170.3l-4.8 6.8a2.2 2.2 0 0 1-2.7.6l-9.9-5.2H79l-10 5.2a2.3 2.3 0 0 1-2.7-.6l-4.8-6.8a2.2 2.2 0 0 1 .2-2.5L79 149.5h-8.5a2 2 0 0 1-2.1-2.1v-14.9a2 2 0 0 1 2.1-2.1h12a57.8 57.8 0 0 1-2.3-15.7 48.9 48.9 0 0 1 97.9 0 50.9 50.9 0 0 1-2.3 15.7h12a2 2 0 0 1 2.1 2.1v14.9a2 2 0 0 1-2.1 2.1h-10.5l17 20.3a2.2 2.2 0 0 1-.1 2.5z"/></symbol><symbol id="domes" viewBox="0 0 256 256"><path d="M79.2 157.4h13.2v13.04H79.2zm17.3 0h20.7v13.04H96.5zm24.9 0h13.2v13.04h-13.2zm17.4 0h20.7v13.04h-20.7zm34.7-44.9h-91c1-26.7 21.3-41.4 45.5-41.4s44.5 14.7 45.5 41.4zm-9.9 44.9h13.2v13.04h-13.2zm-96.9-40.8v36.6h122.6v-36.6zm110.7 26.7H127a2.1 2.1 0 1 1 0-4.1h50.5a2.1 2.1 0 0 1 0 4.1z"/><path d="M128 2L18.9 65v126L128 254l109.1-63V65zm65.4 153.3a2 2 0 0 1-2.1 2.1H181v13h10.4a2.1 2.1 0 0 1 0 4.1H64.7a2.1 2.1 0 0 1 0-4.1H75v-13H64.7a1.9 1.9 0 0 1-2.1-2.1v-40.8a1.9 1.9 0 0 1 2.1-2.1h13.6c1-29.4 23-45.5 49.7-45.5s48.6 16.1 49.7 45.5h13.7a2 2 0 0 1 2.1 2.1z"/></symbol><symbol id="stilts" viewBox="0 0 256 256"><path d="M91 127.8H68.8c6.4-25 28.6-44.3 55-45.9zm5.1 0L125.9 86v41.8H96.1zm-25.8 19.7H126v22.97H70.3zm59.8 0h9.3v22.97h-9.3zm13.4 0h42.2v22.97h-42.2zm43.7-19.7h-57.1V81.6a61.5 61.5 0 0 1 57.1 46.2zm-128.7 4.1h139.1v11.38H58.5z"/><path d="M128 2L18.9 65v126L128 254l109.1-63V65zm89.2 145.5h-27.3v25a2 2 0 0 1-2.1 2.1H68.2a2 2 0 0 1-2.1-2.1v-25H38.8a2.1 2.1 0 1 1 0-4.1h15.5v-13.5a2 2 0 0 1 2.1-2.1h8.1a65.6 65.6 0 0 1 63.3-50.3c.2-.2.4-.2.8 0 30.6.2 56.1 21.7 62.9 50.3h8.1a2 2 0 0 1 2.1 2.1v13.5h15.5a2.1 2.1 0 1 1 0 4.1z"/></symbol></svg>